<?xml version="1.0" encoding="utf-8"?>
<!-- Generator: Adobe Illustrator 21.0.0, SVG Export Plug-In . SVG Version: 6.00 Build 0)  -->
<svg version="1.1" id="图层_1" xmlns="http://www.w3.org/2000/svg" xmlns:xlink="http://www.w3.org/1999/xlink" x="0px" y="0px"
	 viewBox="0 0 52 43" style="enable-background:new 0 0 52 43;" xml:space="preserve">
<style type="text/css">
	.st0{fill:#008A00;stroke:#00C300;stroke-miterlimit:10;}
	.st1{fill:#FFFFFF;}
</style>
<path id="XMLID_7_" class="st0" d="M38.5,42.5h-35c-1.6,0-3-1.3-3-3v-36c0-1.6,1.4-3,3-3h45c1.7,0,3,1.4,3,3l-10,36
	C41.5,41.2,40.2,42.5,38.5,42.5z"/>
<path class="st1" d="M23.5,13.5c-4.4,0-8,3.6-8,8s3.6,8,8,8s8-3.6,8-8S27.9,13.5,23.5,13.5z M28,19.7l-5,5c-0.2,0.2-0.5,0.3-0.7,0.3
	s-0.5-0.1-0.7-0.3c0,0,0,0,0,0c0,0-0.1,0-0.1,0L19,22.2c-0.4-0.4-0.4-1,0-1.4s1-0.4,1.4,0l1.9,1.9l4.3-4.3c0.4-0.4,1-0.4,1.4,0
	S28.4,19.3,28,19.7z"/>
</svg>
