<?xml version="1.0" encoding="utf-8"?>
<svg version="1.1" id="图层_1" xmlns="http://www.w3.org/2000/svg" xmlns:xlink="http://www.w3.org/1999/xlink" x="0px" y="0px"
	 viewBox="0 0 32 32" xml:space="preserve">
<style type="text/css">
	.st0{fill:rgba(255, 255, 255, 0.6);}
	.st1{fill:rgba(0,134,0,0.75);}
</style>
<g>
	<path class="st0" d="M16,31.5c-8.5,0-15.5-7-15.5-15.5S7.5,0.5,16,0.5s15.5,7,15.5,15.5S24.5,31.5,16,31.5z"/>
</g>
<g>
	<path class="st1" d="M23.6,10.8c-0.4-0.4-1-0.4-1.4,0l-8.5,8.4l-3.9-3.8c-0.4-0.4-1-0.4-1.4,0c-0.4,0.4-0.4,1,0,1.4l4.6,4.5
			c0.2,0.2,0.4,0.3,0.7,0.3c0,0,0,0,0,0c0,0,0,0,0,0c0.3,0,0.5-0.1,0.7-0.3l9.2-9C24,11.8,24,11.2,23.6,10.8z"/>
</g>
</svg>
