<?xml version="1.0" encoding="utf-8"?>
<svg version="1.1" id="图层_1" xmlns="http://www.w3.org/2000/svg" xmlns:xlink="http://www.w3.org/1999/xlink" x="0px" y="0px"
	 viewBox="0 0 32 32" xml:space="preserve">
<style type="text/css">
	.st0{fill:rgba(255,255,255,0.6)}
	.st1{fill:rgba(5, 90, 170, 0.75)}
</style>
<g>
	<path class="st0" d="M16,1c8.3,0,15,6.7,15,15s-6.7,15-15,15S1,24.3,1,16S7.7,1,16,1"/>
</g>
<g>
	<path class="st1" d="M18.1,21.7c-0.2,0.3-0.5,0.5-0.6,0.6c-0.2,0.1-0.3,0.2-0.4,0.2c-0.1,0-0.2,0-0.2-0.1
			c-0.1-0.1-0.1-0.2-0.1-0.4c0-0.1,0-0.5,0.1-1.2c0.1-0.7,0.2-3.5,0.4-4.4c0-0.3,0.1-0.7,0.2-1.2c0.3-1.5,0.4-2.4,0.4-2.7
			c0-0.3-0.1-0.5-0.2-0.6c-0.1-0.1-0.3-0.2-0.5-0.2c-0.4,0-0.9,0.2-1.5,0.7c-0.6,0.5-1.3,1.2-2.1,2l0.4,0.4c0.3-0.3,0.5-0.5,0.7-0.6
			c0.2-0.1,0.3-0.2,0.5-0.2c0.1,0,0.1,0,0.2,0.1c0,0.1,0.1,0.2,0.1,0.3c0,0.7-0.2,4-0.6,5.7c-0.4,1.8-0.6,3-0.6,3.9
			c0,0.3,0.1,0.6,0.2,0.7c0.1,0.2,0.3,0.2,0.5,0.2c0.4,0,1-0.3,1.6-0.8c0.6-0.5,1.3-1.2,2-2.2L18.1,21.7z M16.9,9.9
			c0.4,0,0.8-0.2,1.1-0.5c0.3-0.3,0.4-0.8,0.4-1.3c0-0.3-0.1-0.6-0.3-0.8C17.9,7.1,17.6,7,17.3,7c-0.4,0-0.7,0.2-1.1,0.5
			c-0.3,0.3-0.5,0.7-0.5,1.2c0,0.3,0.1,0.6,0.3,0.8C16.3,9.8,16.6,9.9,16.9,9.9z"/>
</g>
</svg>
