<svg xmlns="http://www.w3.org/2000/svg" xmlns:xlink="http://www.w3.org/1999/xlink" preserveAspectRatio="xMidYMid" width="53.262" height="41.998" viewBox="0 0 45.656 36">
  <defs>
    <style>
      .cls-1 {
        fill: #20d15a;
      }

      .cls-1, .cls-2 {
        fill-rule: evenodd;
      }

      .cls-2 {
        fill: #fff;
      }
    </style>
  </defs>
  <g>
    <path d="M45.656,18.999 L40.000,24.655 L40.000,36.000 L2.000,36.000 C0.895,36.000 -0.000,35.105 -0.000,34.000 L-0.000,2.000 C-0.000,0.895 0.895,-0.000 2.000,-0.000 L40.000,-0.000 L40.000,13.343 L45.656,18.999 Z" class="cls-1"/>
    <path d="M27.777,14.085 L18.585,23.277 C17.999,23.863 17.049,23.863 16.463,23.277 L12.221,19.035 C11.635,18.449 11.635,17.499 12.221,16.913 C12.807,16.328 13.756,16.328 14.342,16.913 L17.524,20.095 L25.656,11.963 C26.241,11.377 27.191,11.377 27.777,11.963 C28.363,12.549 28.363,13.499 27.777,14.085 Z" class="cls-2"/>
  </g>
</svg>
