<svg xmlns="http://www.w3.org/2000/svg" xmlns:xlink="http://www.w3.org/1999/xlink" preserveAspectRatio="xMidYMid" width="53.262" height="41.998" viewBox="0 0 45.656 36">
  <defs>
    <style>
      .cls-1 {
        fill: #f51131;
      }

      .cls-1, .cls-2 {
        fill-rule: evenodd;
      }

      .cls-2 {
        fill: #fff;
      }
    </style>
  </defs>
  <g>
    <path d="M45.656,18.999 L40.000,24.655 L40.000,36.000 L2.000,36.000 C0.895,36.000 -0.000,35.105 -0.000,34.000 L-0.000,2.000 C-0.000,0.895 0.895,0.000 2.000,0.000 L40.000,0.000 L40.000,13.343 L45.656,18.999 Z" class="cls-1"/>
    <path d="M22.620,17.499 L25.802,20.681 C26.388,21.267 26.388,22.216 25.802,22.802 C25.216,23.388 24.266,23.388 23.681,22.802 L20.499,19.620 L17.317,22.802 C16.731,23.388 15.781,23.388 15.196,22.802 C14.610,22.216 14.610,21.267 15.196,20.681 L18.378,17.499 L15.196,14.317 C14.610,13.731 14.610,12.781 15.196,12.196 C15.781,11.610 16.731,11.610 17.317,12.196 L20.499,15.378 L23.681,12.196 C24.266,11.610 25.216,11.610 25.802,12.196 C26.388,12.781 26.388,13.731 25.802,14.317 L22.620,17.499 Z" class="cls-2"/>
  </g>
</svg>
